<svg width="1338" height="1406" viewBox="0 0 1338 1406" fill="none"
  xmlns="http://www.w3.org/2000/svg">
  <g filter="url(#filter0_f_4_10)">
    <path fill-rule="evenodd" clip-rule="evenodd"
      d="M609.294 988.051C542.973 967.305 487.787 924.03 450.786 865.211C412.144 803.785 392.321 732.839 403.656 661.16C416.372 580.754 448.254 500.256 515.707 454.682C587.069 406.466 684.549 380.98 761.704 419.246C833.511 454.86 830.066 554.11 863.272 627.062C890.786 687.507 945.055 738.126 936.851 804.029C927.774 876.94 883.331 944.489 819.274 980.476C755.796 1016.14 678.783 1009.79 609.294 988.051Z"
      fill="url(#paint0_linear_4_10)" />
  </g>
  <defs>
    <filter id="filter0_f_4_10" x="0.484955" y="0.709717" width="1337.2" height="1405.08"
      filterUnits="userSpaceOnUse" color-interpolation-filters="sRGB">
      <feFlood flood-opacity="0" result="BackgroundImageFix" />
      <feBlend mode="normal" in="SourceGraphic" in2="BackgroundImageFix" result="shape" />
      <feGaussianBlur stdDeviation="200" result="effect1_foregroundBlur_4_10" />
    </filter>
    <linearGradient id="paint0_linear_4_10" x1="755.333" y1="414.066" x2="601.953" y2="986.488"
      gradientUnits="userSpaceOnUse">
      <stop stop-color="#D84ADB" />
      <stop offset="1" stop-color="#9FB804" />
    </linearGradient>
  </defs>
</svg>
  